<mxfile host="app.diagrams.net" modified="2023-12-16T16:43:04.286Z" agent="Mozilla/5.0 (Windows NT 10.0; WOW64) AppleWebKit/537.36 (KHTML, like Gecko) Chrome/87.0.4280.141 Safari/537.36" version="22.1.11" etag="aj-TV2E4PAsWqsgtq8F1" type="github">
  <diagram name="第 1 页" id="eJFpXzni1b8fC1vZ-FIo">
    <mxGraphModel>
      <root>
        <mxCell id="0" />
        <mxCell id="1" parent="0" />
      </root>
    </mxGraphModel>
  </diagram>
</mxfile>
